<?xml version="1.0" standalone="no"?>
<!DOCTYPE svg PUBLIC "-//W3C//DTD SVG 1.1//EN" "http://www.w3.org/Graphics/SVG/1.1/DTD/svg11.dtd"><svg t="1679228011196"
  class="icon" viewBox="0 0 1088 1024" version="1.1" xmlns="http://www.w3.org/2000/svg" p-id="2954"
  xmlns:xlink="http://www.w3.org/1999/xlink" width="34" height="32">
  <path
    d="M1088 0v780.8l-204.8 51.2-160 179.2c-6.4 6.4-19.2 12.8-25.6 12.8-6.4 0-12.8 0-19.2-6.4-12.8-12.8-12.8-32 0-44.8l172.8-198.4 179.2-44.8V64H64v659.2h576c19.2 0 32 12.8 32 32s-12.8 32-32 32H0V0h1088zM256 384c0 38.4 25.6 64 64 64s64-25.6 64-64-25.6-64-64-64-64 25.6-64 64z m224 0c0 38.4 25.6 64 64 64s64-25.6 64-64-25.6-64-64-64-64 25.6-64 64zM832 384c0-38.4-25.6-64-64-64s-64 25.6-64 64 25.6 64 64 64 64-32 64-64z"
   p-id="2955"></path>
</svg>