<svg t="1683424174389" class="icon" viewBox="0 0 1024 1024" version="1.1" xmlns="http://www.w3.org/2000/svg" p-id="2488"
  width="200" height="200">
  <path
    d="M849.07153297 646.81872559c9.30432153 0 17.26391602 3.30249 23.82934617 9.88769507 6.60992408 6.59509253 9.88769508 14.52502465 9.88769508 23.79473901v101.14617896c0 27.90801978-9.87780761 51.70275879-29.61364722 71.47814965-19.75067115 19.77539086-43.56518578 29.66308594-71.48803711 29.66308594h-101.1165166c-9.32409644 0-17.25402856-3.29754663-23.83428954-9.9865725-6.59509253-6.49127173-9.90252662-14.52502465-9.90252662-23.7947383 0-9.26971435 3.30743408-17.20458984 9.90252662-23.79473901 6.58026099-6.59014916 14.51019311-9.88769508 23.83428954-9.88769507h101.1165166c9.29937744 0 17.26391602-3.29754663 23.82440137-9.88769579 6.61486816-6.59014916 9.88769508-14.52008057 9.88769579-23.89361573v-101.04235815c0-9.36859107 3.28765845-17.30346656 9.89758254-23.78979493 6.57531762-6.69396997 14.52502465-9.99151587 23.83923363-9.99151587l-0.06427025 0.09887671zM242.38726782 141.3103025h101.10168506c9.30432153 0 17.2688601 3.29754663 23.819458 9.88769578 6.62475562 6.59509253 9.89758325 14.52502465 9.89758254 23.7947383 0 9.37353516-3.27282691 17.30346656-9.89758254 23.79473901-6.5505979 6.69396997-14.51513648 9.9865725-23.81451463 9.9865725h-101.10168433c-9.31915307 0-17.2688601 3.19372583-23.82934547 9.88769508-6.62475562 6.49127173-9.91241479 14.52502465-9.91241479 23.794739v101.04235816c0 9.36859107-3.28271508 17.30346656-9.89758324 23.89361573-6.57531762 6.59014916-14.51513648 9.88769508-23.81451392 9.88769507-9.31420898 0-17.25402856-3.29754663-23.82934547-9.88769507C144.49908423 360.80230689 141.21142578 352.86743141 141.21142578 343.49884033V242.45648217c0-27.91296386 9.86792016-51.70275879 29.62353539-71.47814965 19.75067115-19.77539086 43.57507324-29.66308594 71.48803711-29.66308594h0.06426954zM174.9877932 646.81872559c9.30432153 0 17.24414039 3.30249 23.81451393 9.88769507 6.62475562 6.59509253 9.90252662 14.52502465 9.90252662 23.79473901v101.14617896c0 9.26971435 3.27282691 17.19964576 9.89758324 23.78979492 6.57531762 6.59014916 14.51513648 9.88769508 23.81451393 9.88769579h101.12640404c9.29937744 0 17.25402856 3.29754663 23.82934547 9.88769507 6.60992408 6.59014916 9.88769508 14.52502465 9.88769579 23.89361572 0 9.26971435-3.27777099 17.20458984-9.88769579 23.79473901-6.57531762 6.59014916-14.52996803 9.88769508-23.82934547 9.88769508H242.41693092c-27.91296386 0-51.71264625-9.88769508-71.47814895-29.66308594-19.75561523-19.67651344-29.62353539-43.57012915-29.62353539-71.47814965v-101.04235816c0-9.26971435 3.27282691-17.30346656 9.88769507-23.89361573 6.58026099-6.59509253 14.52502465-9.88769508 23.81451464-9.88769507h-0.02966309zM680.57037329 141.3103025h101.1165166c27.92285133 0 51.73736596 9.88769508 71.48803711 29.56420922 19.73583961 19.77539086 29.61364722 43.57012915 29.61364722 71.47814965v101.14617896c0 9.26971435-3.27777099 17.30346656-9.88769508 23.78979493-6.56542945 6.69396997-14.52502465 9.88769508-23.82934617 9.88769506-9.29937744 0-17.26391602-3.19372583-23.82440139-9.88769506-6.61486816-6.48632836-9.88769508-14.52008057-9.88769579-23.78979493V242.35266137c0-9.26971435-3.28765845-17.19964576-9.90252661-23.78979492-6.57037354-6.59509253-14.52008057-9.88769508-23.83428955-9.88769579h-101.10168433c-9.31420898 0-17.2688601-3.29754663-23.82934618-9.88769507-6.60992408-6.59509253-9.89758325-14.52502465-9.89758254-23.79473902 0-9.37353516 3.28765845-17.30346656 9.89758254-23.89361571 6.56048608-6.59014916 14.51513648-9.88769508 23.82934618-9.88769508l0.04943799 0.09887672z"
    p-id="2489"></path>
</svg>