<svg t="1683423976480" class="icon" viewBox="0 0 1024 1024" version="1.1" xmlns="http://www.w3.org/2000/svg" p-id="2375"
  width="200" height="200">
  <path
    d="M685.568 511.268571A175.542857 175.542857 0 0 0 509.074286 334.628571 175.542857 175.542857 0 0 0 332.507429 511.268571 175.616 175.616 0 0 0 509.074286 687.762286 176.713143 176.713143 0 0 0 685.568 511.268571z m-533.650286 294.473143v-225.28H64.585143v225.28c0 82.651429 67.291429 149.942857 149.942857 149.942857h225.28v-87.332571h-225.28a62.683429 62.683429 0 0 1-62.610286-62.610286z m0-591.213714c0-34.596571 28.013714-62.683429 62.610286-62.683429h225.28V64.585143h-225.28c-82.651429 0-149.942857 67.291429-149.942857 149.942857v225.28h87.332571v-225.28z m716.434286 591.213714a62.683429 62.683429 0 0 1-62.610286 62.683429h-225.28v87.332571h225.28c82.651429 0 149.942857-67.291429 149.942857-149.942857v-225.28h-87.332571v225.28zM805.741714 64.585143h-225.28v87.332571h225.28c34.669714 0 62.683429 28.013714 62.683429 62.610286v225.28h87.332571v-225.28c0-82.651429-67.291429-149.942857-149.942857-149.942857z"
    fill="#666666" p-id="2376"></path>
</svg>