<svg t="1683206947369" class="icon" viewBox="0 0 1024 1024" version="1.1" xmlns="http://www.w3.org/2000/svg" p-id="914"
  width="200" height="200">
  <path
    d="M514 114.3c-219.9 0-398.8 178.9-398.8 398.8 0 220 178.9 398.9 398.8 398.9s398.8-178.9 398.8-398.9c0-219.8-178.9-398.8-398.8-398.8z m152.9 440.4L502.8 718.8c-22.9 22.9-60.2 22.9-83.1 0-11.5-11.5-17.2-26.5-17.2-41.5s5.7-30.1 17.2-41.5l122.6-122.6-122.6-122.6c-22.9-22.9-22.9-60.2 0-83.1 22.9-22.9 60.2-22.9 83.1 0l164.1 164.1c23 23 23 60.2 0 83.1z"
    p-id="915"></path>
</svg>