<svg width="1184" height="1094" xmlns="http://www.w3.org/2000/svg" p-id="2223" version="1.1" class="icon" t="1683431120773">

 <g>
  <title>Layer 1</title>
  <path id="svg_1" p-id="2224" d="m209.53846,97.46154c-35.34565,0 -64,28.65435 -64,64l0,768c0,35.34565 28.65435,64 64,64l768,0c35.34565,0 64,-28.65435 64,-64l0,-768c0,-35.34565 -28.65435,-64 -64,-64l-768,0zm0,-64l768,0c70.69249,0 128,57.30751 128,128l0,768c0,70.69249 -57.30751,128 -128,128l-768,0c-70.69249,0 -128,-57.30751 -128,-128l0,-768c0,-70.69249 57.30751,-128 128,-128zm329.14303,251.42849l301.71512,0l0,68.57151c-18.02004,27.89517 -58.368,67.96771 -96.00059,96.00059c24.064,8.704 69.77795,13.27433 137.14303,13.71336l-13.71454,68.57269c-63.36088,-7.29747 -123.48381,-31.81815 -164.5721,-54.85815c-43.77541,21.12029 -101.21122,41.41668 -164.57092,54.85697l-27.42908,-68.57151c56.37885,-8.49214 100.27902,-12.45278 137.14303,-27.4279c-28.03171,-24.96088 -54.74752,-45.03834 -68.57152,-82.28605l-41.14243,0l0,-68.57151zm114.85749,68.57151c12.288,25.72829 22.27141,41.18363 47.99852,60.00052c31.87348,-19.96918 45.07248,-35.42452 60.04878,-60.00052l-108.04731,0l0.00001,0zm-60.00052,192l68.57151,0l0,-41.14244l68.55621,0l0,41.14244l68.58682,0l0,68.57151l-68.58682,0l0,41.14244l109.72925,0l0,68.57269l-109.72925,0l0,109.71277l-68.55503,0l0,-109.71395l-109.71395,0l0,-68.57151l109.71395,0l0,-41.14126l-68.57269,0l0,-68.57269zm-205.71454,-288.00059c34.28635,22.11369 81.11728,54.85815 109.71395,82.28605l-54.85697,68.57269c-21.504,-26.11317 -54.52741,-65.66547 -95.99941,-96.00059l41.14243,-54.85697l0,-0.00118zm137.15715,397.71454l0,54.85697c-56.4377,53.43162 -97.58602,90.00254 -123.44261,109.71513l-36.00007,-58.28561c10.752,-9.60088 22.28553,-25.0421 22.28553,-37.71498l0,-219.4279l-82.28487,0l0,-68.57269l150.85756,0l0,260.57269c28.63198,-9.103 51.49426,-22.81754 68.58446,-41.14361z"/>
  <line transform="rotate(42 78.923 72.3751)" fill="none" id="svg_5" y2="110.06744" x2="118.92298" y1="34.68281" x1="38.92296"/>
  <line fill="none" id="svg_6" y2="17.75973" x2="195.84607" y1="19.29819" x1="195.84607"/>
  <line fill="none" id="svg_7" y2="103.9136" x2="78.92297" y1="53.14435" x1="58.92297"/>
  <path fill="none" d="m-8.76935,6.9905c1.53846,0 2.47142,2.3831 10.76923,7.69231c8.69317,5.56217 15.25893,9.40329 21.53847,13.84616c4.52824,3.2038 6.15385,6.15385 7.69231,7.69231l3.07693,1.53846l0,1.53846l1.53846,0" id="svg_8"/>
  <polyline stroke-linecap="round" fill="none" id="svg_10" points="-602.6156307024665,-16.086429095004064 -602.6156307024665,-17.62489095038393 "/>
  <rect transform="rotate(-45 590.077 533.529)" stroke="null" id="svg_11" height="1291.01236" width="49.23078" y="-111.97716" x="565.46154"/>
 </g>
</svg>