<?xml version="1.0" standalone="no"?>
<!DOCTYPE svg PUBLIC "-//W3C//DTD SVG 1.1//EN" "http://www.w3.org/Graphics/SVG/1.1/DTD/svg11.dtd"><svg t="1673764972596"
  class="icon" viewBox="0 0 1024 1024" version="1.1" xmlns="http://www.w3.org/2000/svg" p-id="1129"
  xmlns:xlink="http://www.w3.org/1999/xlink" width="48" height="48">
  <path
    d="M603.21743708 330.67526577L503.84075742 349.27697141c-7.20606615 1.34066346-12.40113709 7.20606615-12.4011371 13.90938349v201.26710334c0 11.22805655-8.54672961 21.11544964-20.44511792 23.62919364l-30.332511 6.53573443c-18.26653979 3.85440749-32.67867206 18.26653979-32.84625501 35.52758194-0.16758294 23.46161072 23.62919365 40.72265287 48.43146785 35.52758192l15.92037871-3.35165867c25.97535471-5.53023681 44.40947741-26.14293764 45.58255795-50.44246304h0.16758293V430.21952837c0-5.36265388 4.0219904-9.88739309 9.71981014-10.89289067l80.10464231-14.9148811c5.86540268-1.00549761 9.88739309-5.69781977 9.8873931-11.22805659v-51.11279476c0.67033173-7.37364908-6.5357344-12.73630295-14.4121323-11.39563948z"
    p-id="1130"></path>
  <path
    d="M863.64131599 238.50465228H162.64190445c-29.15943044 0-52.7886241 23.62919365-52.78862411 52.78862408v402.86937254c0 29.15943044 23.62919365 52.7886241 52.78862411 52.7886241h700.99941154c29.15943044 0 52.7886241-23.62919365 52.78862409-52.7886241V291.46085932c0-29.15943044-23.62919365-52.95620705-52.78862409-52.95620704z m23.4616107 455.65799662c0 12.90388589-10.55772482 23.46161072-23.4616107 23.46161069H162.64190445c-12.90388589 0-23.46161072-10.55772482-23.46161072-23.46161069V291.46085932c0-12.90388589 10.55772482-23.46161072 23.46161072-23.46161074h700.99941154c12.90388589 0 23.46161072 10.55772482 23.4616107 23.46161074v402.70178958zM698.90729218 795.88548961H327.37592828c-16.25554457 0-29.32701339 13.07146883-29.32701342 29.32701342s13.07146883 29.32701339 29.32701342 29.32701339h371.5313639c16.25554457 0 29.32701339-13.07146883 29.32701341-29.32701339s-13.07146883-29.32701339-29.32701341-29.32701342z"
    p-id="1131"></path>
</svg>